<?xml version="1.0" encoding="UTF-8"?>
<!DOCTYPE svg PUBLIC "-//W3C//DTD SVG 1.1//EN" "http://www.w3.org/Graphics/SVG/1.1/DTD/svg11.dtd">
<!-- Creator: CorelDRAW (Versão OEM) -->
<svg xmlns="http://www.w3.org/2000/svg" xml:space="preserve" width="70mm" height="25mm" version="1.1" style="shape-rendering:geometricPrecision; text-rendering:geometricPrecision; image-rendering:optimizeQuality; fill-rule:evenodd; clip-rule:evenodd"
viewBox="0 0 7000 2500"
 xmlns:xlink="http://www.w3.org/1999/xlink"
 xmlns:xodm="http://www.corel.com/coreldraw/odm/2003">
 <defs>
  <style type="text/css">
   <![CDATA[
    .fil0 {fill:#E6E7E8}
   ]]>
  </style>
 </defs>
 <g id="Camada_x0020_1">
  <metadata id="CorelCorpID_0Corel-Layer"/>
  <path class="fil0" d="M-5.2 3.07l7000 0 0 2500 -7000 0 0 -2500zm1895.74 1185.77c-7.9,0 -14.42,-2.52 -19.43,-7.62 -5.05,-5.1 -7.58,-11.35 -7.58,-18.75 0,-7.62 2.53,-13.88 7.58,-18.7 5.01,-4.83 11.53,-7.24 19.43,-7.24 7.99,0 14.52,2.41 19.52,7.24 5.01,4.82 7.49,11.08 7.49,18.7 0,7.67 -2.48,14.04 -7.49,18.97 -5,4.94 -11.53,7.4 -19.52,7.4zm23.06 190.5l-46.73 0 0 -164.5 46.73 0 0 164.5zm353.54 0l-46.75 0 0 -91.41c0,-25.5 -8.39,-38.22 -25.24,-38.22 -8.09,0 -14.76,3.4 -20.03,10.14 -5.21,6.75 -7.84,15.3 -7.84,25.67l0 93.82 -46.74 0 0 -164.5 46.74 0 0 26.04 0.61 0c11.18,-20.01 27.41,-29.99 48.81,-29.99 33.64,0 50.44,22.59 50.44,67.77l0 100.68zm303.39 -204.75c-6.01,-2.58 -11.78,-3.84 -17.3,-3.84 -14.97,0 -22.46,8.83 -22.46,26.54l0 17.55 34.6 0 0 37.5 -34.6 0 0 127 -46.73 0 0 -127 -25.5 0 0 -37.5 25.5 0 0 -20.4c0,-18.76 5.61,-33.84 16.89,-45.3 11.23,-11.46 26.56,-17.22 45.93,-17.22 9.46,0 17.35,1.05 23.67,3.18l0 39.49zm257.07 208.7c-25.29,0 -45.17,-7.68 -59.64,-23.03 -14.46,-15.36 -21.7,-36.19 -21.7,-62.51 0,-27.2 7.49,-48.48 22.51,-63.83 15.02,-15.36 35.36,-23.03 60.91,-23.03 25.19,0 44.97,7.67 59.27,23.03 14.32,15.35 21.51,35.64 21.51,60.92 0,27.31 -7.39,48.86 -22.16,64.7 -14.77,15.85 -35,23.75 -60.7,23.75zm1.26 -133.58c-11.02,0 -19.63,4.11 -25.74,12.39 -6.13,8.23 -9.21,19.91 -9.21,34.99 0,31.58 11.73,47.37 35.26,47.37 22.41,0 33.64,-16.23 33.64,-48.63 0,-30.77 -11.34,-46.12 -33.95,-46.12zm378.42 10.91c-5.61,-3.34 -12.19,-4.99 -19.73,-4.99 -10.16,0 -18.16,4.06 -23.87,12.12 -5.72,8.12 -8.61,19.08 -8.61,33.01l0 78.58 -46.73 0 0 -164.5 46.73 0 0 30.48 0.61 0c7.39,-22.31 20.74,-33.45 40.02,-33.45 4.95,0 8.8,0.66 11.58,1.92l0 46.83zm430.27 118.72l-46.74 0 0 -93.82c0,-23.86 -8.09,-35.81 -24.28,-35.81 -7.74,0 -14.02,3.56 -18.82,10.75 -4.85,7.18 -7.28,16.12 -7.28,26.81l0 92.07 -46.74 0 0 -94.75c0,-23.25 -8,-34.88 -23.93,-34.88 -8.05,0 -14.42,3.4 -19.23,10.25 -4.79,6.86 -7.23,16.18 -7.23,27.97l0 91.41 -46.73 0 0 -164.5 46.73 0 0 25.71 0.61 0c4.81,-8.77 11.63,-15.9 20.39,-21.38 8.75,-5.54 18.31,-8.28 28.68,-8.28 21.45,0 36.11,10.2 44.06,30.65 11.53,-20.45 28.53,-30.65 50.99,-30.65 33.03,0 49.52,22.04 49.52,66.18l0 102.27zm330.71 0l-44.31 0 0 -23.63 -0.61 0c-10.16,18.37 -25.19,27.58 -45.17,27.58 -14.71,0 -26.3,-4.5 -34.75,-13.55 -8.45,-9.04 -12.65,-21.11 -12.65,-36.19 0,-31.86 17.46,-50.28 52.31,-55.22l41.18 -5.92c0,-17.98 -9.01,-26.98 -27.01,-26.98 -18.07,0 -35.26,5.82 -51.61,17.44l0 -38.16c6.53,-3.62 15.44,-6.86 26.76,-9.66 11.33,-2.79 21.65,-4.16 30.92,-4.16 43.29,0 64.94,23.41 64.94,70.19l0 98.26zm-44 -66.84l0 -11.14 -27.58 3.84c-15.22,2.2 -22.81,9.65 -22.81,22.43 0,5.76 1.87,10.53 5.56,14.26 3.7,3.67 8.71,5.54 15.03,5.54 8.8,0 15.99,-3.29 21.49,-9.93 5.52,-6.58 8.31,-14.91 8.31,-25zm30.04 -175.64l-46.33 51.98 -33.79 0 38.49 -51.98 41.63 0zm310.13 240.51c-6.94,3.94 -17.35,5.92 -31.26,5.92 -32.98,0 -49.47,-18.59 -49.47,-55.71l0 -75.24 -24.59 0 0 -37.5 24.59 0 0 -35.54 46.74 -14.47 0 50.01 33.99 0 0 37.5 -33.99 0 0 66.46c0,17.11 6.27,25.66 18.76,25.66 4.91,0 10.02,-1.53 15.23,-4.66l0 37.57zm217.56 -188.53c-7.9,0 -14.42,-2.52 -19.43,-7.62 -5.05,-5.1 -7.58,-11.35 -7.58,-18.75 0,-7.62 2.53,-13.88 7.58,-18.7 5.01,-4.83 11.53,-7.24 19.43,-7.24 7.99,0 14.52,2.41 19.52,7.24 5.01,4.82 7.49,11.08 7.49,18.7 0,7.67 -2.48,14.04 -7.49,18.97 -5,4.94 -11.53,7.4 -19.52,7.4zm23.06 190.5l-46.73 0 0 -164.5 46.73 0 0 164.5zm321.97 -5.98c-10.57,6.64 -25.85,9.93 -45.83,9.93 -23.32,0 -42.24,-7.68 -56.66,-22.98 -14.41,-15.3 -21.64,-35.04 -21.64,-59.22 0,-27.91 7.74,-49.95 23.21,-66.02 15.48,-16.12 36.17,-24.18 62.07,-24.18 17.91,0 30.86,2.57 38.85,7.67l0 43.05c-9.76,-7.95 -20.69,-11.9 -32.78,-11.9 -13.4,0 -24.08,4.28 -31.92,12.78 -7.84,8.5 -11.79,20.23 -11.79,35.26 0,14.53 3.75,25.99 11.29,34.27 7.48,8.28 17.8,12.44 30.95,12.44 11.68,0 23.07,-3.94 34.25,-11.89l0 40.79zm324.33 5.98l-44.3 0 0 -23.63 -0.61 0c-10.17,18.37 -25.2,27.58 -45.18,27.58 -14.71,0 -26.3,-4.5 -34.75,-13.55 -8.45,-9.04 -12.64,-21.11 -12.64,-36.19 0,-31.86 17.45,-50.28 52.3,-55.22l41.18 -5.92c0,-17.98 -9,-26.98 -27.01,-26.98 -18.06,0 -35.26,5.82 -51.6,17.44l0 -38.16c6.53,-3.62 15.43,-6.86 26.76,-9.66 11.33,-2.79 21.65,-4.16 30.91,-4.16 43.29,0 64.94,23.41 64.94,70.19l0 98.26zm-44 -66.84l0 -11.14 -27.57 3.84c-15.22,2.2 -22.82,9.65 -22.82,22.43 0,5.76 1.88,10.53 5.57,14.26 3.7,3.67 8.71,5.54 15.02,5.54 8.81,0 15.99,-3.29 21.5,-9.93 5.52,-6.58 8.3,-14.91 8.3,-25zm-2203.9 813.55c-231.68,0 -429.33,-87.89 -592.92,-263.18 -103.49,-111.56 -174.24,-238.05 -212.13,-379.6l433.77 0c21.87,43.29 49.93,83.44 84.22,120.48 95.01,102.12 212.89,153.43 353.11,153.43 141.75,0 260.13,-51.31 355.65,-153.43 34.24,-36.99 62.34,-77.14 84.27,-120.48l442.61 0 0 49.26 -233.49 -0.79c-7.12,155.03 84.42,411.23 233.49,494.94l0 41.45 -186.47 0 -188.49 0 0 -183.41c-158.52,160.04 -349.56,240.31 -573.62,241.33zm1970 -652.53c4.83,30.83 7.25,63.37 7.25,97.61 0,170.21 -55.89,308.92 -168.18,416.63 -112.29,108.22 -256.07,162.07 -431.86,162.07 -177.83,0 -324.66,-54.36 -440.5,-162.58 -115.34,-108.74 -177.31,-250.48 -185.45,-425.76l417.64 0c12.2,70.61 36.07,124.48 73.15,161.05 36.59,37.1 83.84,55.38 142.27,55.38 55.89,0 101.11,-15.24 136.67,-46.23 36.08,-30.49 53.86,-70.63 53.86,-118.89 0,-52.85 -16.26,-93.49 -48.78,-122.45 -6.39,-5.59 -13.96,-11.2 -22.7,-16.83l466.63 0zm-387.34 -563.54c-10.16,-46.74 -28.97,-81.79 -56.9,-105.16 -27.95,-23.37 -64.03,-35.06 -107.71,-35.06 -47.26,0 -85.36,13.21 -114.84,40.14 -29.46,26.93 -44.19,61.48 -44.19,104.15 0,40.64 18.29,73.67 55.37,98.56 13.12,8.93 30.61,18.25 52.48,28.01l-392.78 0 0 -448.61c13.24,-15.54 27.59,-30.47 43.08,-44.78 107.21,-99.59 244.89,-149.39 412.56,-149.39 146.82,0 272.84,48.78 378,146.84 105.18,98.06 162.09,220 171.22,365.3l-396.29 0zm-2395.37 130.64c35.56,-154.38 108.87,-291.69 219.79,-411.6 163.59,-176.3 361.75,-264.71 594.44,-264.71 225.09,0 415.61,80.79 572.1,242.86l0 -184.93 374.96 0 0 618.38 -426.83 0c-23.47,-56.34 -56.63,-107.66 -99.54,-154.01 -95.01,-102.12 -212.88,-153.44 -354.63,-153.44 -141.25,0 -259.63,51.32 -354.64,154.46 -42.59,46 -75.58,97.02 -99.02,152.99l-426.63 0zm-447.26 29.7l3701.7 0 0 373.8 -3701.7 0 0 -373.8z"/>
 </g>
</svg>
