<?xml version="1.0" encoding="UTF-8"?>
<!DOCTYPE svg PUBLIC "-//W3C//DTD SVG 1.1//EN" "http://www.w3.org/Graphics/SVG/1.1/DTD/svg11.dtd">
<!-- Creator: CorelDRAW (Versão OEM) -->
<svg xmlns="http://www.w3.org/2000/svg" xml:space="preserve" width="1000mm" height="482.61mm" version="1.1" style="shape-rendering:geometricPrecision; text-rendering:geometricPrecision; image-rendering:optimizeQuality; fill-rule:evenodd; clip-rule:evenodd"
viewBox="0 0 100000 48261"
 xmlns:xlink="http://www.w3.org/1999/xlink"
 xmlns:xodm="http://www.corel.com/coreldraw/odm/2003">
 <defs>
  <style type="text/css">
   <![CDATA[
    .fil2 {fill:#FFF212}
    .fil1 {fill:#ED3237}
    .fil0 {fill:#077BBA}
    .fil3 {fill:#201E1E;fill-rule:nonzero}
   ]]>
  </style>
 </defs>
 <g id="Camada_x0020_1">
  <metadata id="CorelCorpID_0Corel-Layer"/>
  <path class="fil0" d="M12078.61 18278.31c960.52,-4170.46 2940.87,-7879.78 5937.57,-11119.12 4419.3,-4762.71 9772.26,-7151.09 16058.52,-7151.09 6080.5,0 11227.34,2182.62 15454.93,6560.85l0 0 0 -4995.87 0 0 10129.36 0 0 0 0 16705.23 -11530.57 0c-634.09,-1522 -1530,-2908.43 -2689.08,-4160.44 -2566.75,-2758.82 -5750.79,-4145.09 -9580.2,-4145.09 -3815.72,0 -7013.8,1386.27 -9580.55,4172.47 -1150.49,1242.88 -2041.7,2621.02 -2674.94,4133.06l-11525.04 0z"/>
  <path class="fil0" d="M34033.62 47600.65c-6258.87,0 -11598.14,-2374.34 -16017.44,-7109.65 -2795.83,-3013.6 -4707.05,-6430.67 -5730.71,-10254.65l11718.09 0c590.75,1169.32 1348.79,2254 2275.03,3254.54 2566.75,2758.81 5751.14,4145.06 9539.12,4145.06 3829.41,0 7027.49,-1386.25 9607.93,-4145.06 924.98,-999.08 1683.93,-2083.74 2276.54,-3254.54l11956.81 0 0 2376.35 -4682.59 0 0 0c211.97,4566.64 1776.76,8290.3 4682.59,11184.46l0 2238.86 0 0 -5037.29 0 -5092.07 0 0 0 0 -4954.78 0 0c-4282.37,4323.44 -9443.25,6492.02 -15496.01,6519.41z"/>
  <path class="fil1" d="M76788.45 14749.19l0 0c-274.57,-1262.66 -782.66,-2209.65 -1537.23,-2840.98 -754.93,-631.33 -1729.65,-946.99 -2909.81,-946.99 -1276.7,0 -2305.86,356.74 -3102.22,1084.28 -796,727.54 -1193.84,1660.83 -1193.84,2813.6 0,1097.98 494.04,1990.2 1495.81,2662.61 354.4,241.22 827,493 1417.79,756.6l-10610.9 0 0 -12119c357.64,-419.81 745.48,-823.15 1163.86,-1209.78 2896.11,-2690.34 6615.61,-4035.51 11145.18,-4035.51 3966.34,0 7370.54,1317.78 10211.52,3966.7 2841.34,2648.91 4378.58,5943.2 4625.43,9868.47l0 0 -10705.59 0z"/>
  <path class="fil1" d="M87486.72 29998.61c130.47,832.87 195.73,1711.97 195.73,2636.91 0,4598.02 -1509.86,8345.28 -4543.25,11255.08 -3033.4,2923.49 -6917.59,4378.23 -11666.61,4378.23 -4803.79,0 -8770.5,-1468.42 -11899.76,-4391.92 -3115.91,-2937.55 -4790.09,-6766.61 -5009.9,-11501.94l0 0 11282.47 0 0 0c329.36,1907.69 974.38,3362.77 1976.15,4350.85 988.43,1002.11 2264.79,1496.15 3843.11,1496.15 1509.86,0 2731.43,-411.87 3692.13,-1248.96 974.72,-823.75 1455.06,-1908.04 1455.06,-3211.78 0,-1427.68 -439.25,-2525.67 -1317.78,-3307.98 -172.58,-151.05 -377.11,-302.63 -613.32,-454.64l12605.97 0z"/>
  <polygon class="fil2" points="-4.13,19080.55 99995.87,19080.55 99995.87,29178.7 -4.13,29178.7 "/>
  <path class="fil3" d="M6670.21 22282.37c-213.18,0 -389.46,-68.14 -524.75,-205.91 -136.66,-137.76 -204.99,-306.64 -204.99,-506.63 0,-205.91 68.33,-374.78 204.99,-505.14 135.29,-130.36 311.57,-195.54 524.75,-195.54 215.91,0 392.2,65.18 527.49,195.54 135.28,130.36 202.24,299.23 202.24,505.14 0,207.4 -66.96,379.24 -202.24,512.56 -135.29,133.32 -311.58,199.98 -527.49,199.98zm623.14 5146.29l-1262.69 0 0 -4444.12 1262.69 0 0 4444.12zm9550.75 0l-1262.68 0 0 -2469.45c0,-688.83 -226.85,-1032.51 -681.9,-1032.51 -218.65,0 -399.03,91.84 -541.15,274.05 -140.76,182.21 -211.82,413.3 -211.82,693.28l0 2534.63 -1262.68 0 0 -4444.12 1262.68 0 0 703.66 16.4 0c302.01,-540.7 740.66,-810.31 1318.71,-810.31 908.75,0 1362.44,610.32 1362.44,1830.97l0 2719.8zm8196.52 -5531.44c-162.63,-69.63 -318.41,-103.7 -467.36,-103.7 -404.5,0 -606.74,238.5 -606.74,716.99l0 474.03 934.71 0 0 1013.26 -934.71 0 0 3430.86 -1262.69 0 0 -3430.86 -688.74 0 0 -1013.26 688.74 0 0 -551.07c0,-506.62 151.68,-914 456.43,-1223.61 303.37,-309.61 717.43,-465.15 1240.82,-465.15 255.54,0 468.72,28.15 639.54,85.92l0 1066.59zm6944.75 5638.1c-683.27,0 -1220.32,-207.39 -1611.15,-622.18 -390.83,-414.78 -586.24,-977.7 -586.24,-1688.76 0,-734.76 202.24,-1309.53 608.11,-1724.32 405.86,-414.78 955.21,-622.17 1645.31,-622.17 680.53,0 1214.85,207.39 1601.59,622.17 386.73,414.79 580.77,962.89 580.77,1645.81 0,737.72 -199.51,1319.9 -598.54,1748.01 -399.03,428.12 -945.65,641.44 -1639.85,641.44zm34.17 -3608.62c-297.91,0 -530.22,111.1 -695.57,334.79 -165.36,222.2 -248.72,537.74 -248.72,945.11 0,853.27 317.04,1279.91 952.49,1279.91 605.37,0 908.74,-438.49 908.74,-1313.98 0,-831.05 -306.1,-1245.83 -916.94,-1245.83zm10223.09 294.79c-151.69,-90.36 -329.34,-134.8 -532.96,-134.8 -274.67,0 -490.59,109.62 -645,327.38 -154.42,219.24 -232.32,515.52 -232.32,891.78l0 2122.81 -1262.68 0 0 -4444.12 1262.68 0 0 823.65 16.4 0c199.52,-602.92 560.28,-903.64 1080.93,-903.64 133.93,0 237.78,17.78 312.95,51.85l0 1265.09zm11623.79 3207.17l-1262.68 0 0 -2534.63c0,-644.39 -218.65,-967.33 -655.94,-967.33 -209.08,0 -378.54,96.29 -508.36,290.35 -131.18,194.06 -196.77,435.52 -196.77,724.39l0 2487.22 -1262.69 0 0 -2559.81c0,-628.1 -215.91,-942.15 -646.37,-942.15 -217.28,0 -389.47,91.84 -519.29,277.01 -129.82,185.18 -195.42,437.01 -195.42,755.5l0 2469.45 -1262.68 0 0 -4444.12 1262.68 0 0 694.77 16.41 0c129.82,-237.02 314.3,-429.6 550.71,-577.74 236.41,-149.62 494.69,-223.68 774.83,-223.68 579.41,0 975.71,275.53 1190.25,828.08 311.58,-552.55 770.74,-828.08 1377.48,-828.08 892.35,0 1337.84,595.51 1337.84,1788.01l0 2762.76zm8934.45 0l-1197.09 0 0 -638.47 -16.4 0c-274.68,496.26 -680.54,745.13 -1220.32,745.13 -397.66,0 -710.61,-121.47 -938.82,-365.9 -228.21,-244.43 -341.63,-570.33 -341.63,-977.71 0,-860.67 471.45,-1358.41 1413,-1491.74l1112.37 -159.98c0,-485.89 -243.25,-728.84 -729.74,-728.84 -487.85,0 -952.47,157.03 -1393.87,471.08l0 -1031.04c176.29,-97.77 416.79,-185.17 722.9,-260.72 306.11,-75.55 584.88,-112.58 834.96,-112.58 1169.76,0 1754.64,632.54 1754.64,1896.15l0 2654.62zm-1188.89 -1805.79l0 -300.72 -744.77 103.7c-411.33,59.25 -616.31,260.72 -616.31,605.88 0,155.54 50.56,284.42 150.32,385.15 99.76,99.26 235.05,149.62 405.87,149.62 237.78,0 431.82,-88.88 580.77,-268.13 148.96,-177.76 224.12,-402.93 224.12,-675.5zm811.72 -4744.84l-1251.75 1404.34 -912.85 0 1039.94 -1404.34 1124.66 0zm8378.26 6497.3c-187.22,106.66 -468.72,159.99 -844.52,159.99 -890.98,0 -1336.48,-502.19 -1336.48,-1505.07l0 -2032.45 -664.14 0 0 -1013.26 664.14 0 0 -959.92 1262.69 -391.09 0 1351.01 918.31 0 0 1013.26 -918.31 0 0 1795.43c0,462.18 169.45,693.28 506.99,693.28 132.55,0 270.57,-41.48 411.32,-125.92l0 1014.74zm5877.49 -5092.96c-213.18,0 -389.46,-68.14 -524.75,-205.91 -136.66,-137.76 -204.99,-306.64 -204.99,-506.63 0,-205.91 68.33,-374.78 204.99,-505.14 135.29,-130.36 311.57,-195.54 524.75,-195.54 215.91,0 392.2,65.18 527.49,195.54 135.28,130.36 202.24,299.23 202.24,505.14 0,207.4 -66.96,379.24 -202.24,512.56 -135.29,133.32 -311.58,199.98 -527.49,199.98zm623.14 5146.29l-1262.68 0 0 -4444.12 1262.68 0 0 4444.12zm8698.03 -161.47c-285.6,179.25 -698.3,268.13 -1238.08,268.13 -629.97,0 -1141.06,-207.39 -1530.52,-620.7 -389.47,-413.3 -584.88,-946.59 -584.88,-1599.88 0,-754.02 209.08,-1349.53 627.24,-1783.57 418.16,-435.52 977.08,-653.28 1676.74,-653.28 483.76,0 833.6,69.62 1049.5,207.39l0 1162.87c-263.74,-214.79 -558.91,-321.45 -885.51,-321.45 -362.14,0 -650.48,115.54 -862.29,345.16 -211.81,229.61 -318.4,546.62 -318.4,952.52 0,392.56 101.12,702.17 304.74,925.86 202.24,223.68 481.02,336.27 836.32,336.27 315.67,0 623.14,-106.66 925.14,-321.46l0 1102.14zm8762.27 161.47l-1197.09 0 0 -638.47 -16.4 0c-274.68,496.26 -680.54,745.13 -1220.32,745.13 -397.66,0 -710.61,-121.47 -938.82,-365.9 -228.21,-244.43 -341.63,-570.33 -341.63,-977.71 0,-860.67 471.45,-1358.41 1413,-1491.74l1112.37 -159.98c0,-485.89 -243.25,-728.84 -729.74,-728.84 -487.86,0 -952.47,157.03 -1393.87,471.08l0 -1031.04c176.28,-97.77 416.79,-185.17 722.9,-260.72 306.11,-75.55 584.88,-112.58 834.96,-112.58 1169.75,0 1754.64,632.54 1754.64,1896.15l0 2654.62zm-1188.89 -1805.79l0 -300.72 -744.77 103.7c-411.33,59.25 -616.31,260.72 -616.31,605.88 0,155.54 50.56,284.42 150.32,385.15 99.76,99.26 235.05,149.62 405.86,149.62 237.78,0 431.83,-88.88 580.78,-268.13 148.95,-177.76 224.12,-402.93 224.12,-675.5z"/>
 </g>
</svg>
